<?xml version="1.0" standalone="no"?>
<!DOCTYPE svg PUBLIC "-//W3C//DTD SVG 20010904//EN"
 "http://www.w3.org/TR/2001/REC-SVG-20010904/DTD/svg10.dtd">
<svg version="1.0" xmlns="http://www.w3.org/2000/svg"
 width="724.000000pt" height="184.000000pt" viewBox="0 0 724.000000 184.000000"
 preserveAspectRatio="xMidYMid meet">

<g transform="translate(0.000000,184.000000) scale(0.100000,-0.100000)"
fill="#000000" stroke="none">
<path d="M838 1723 c-43 -8 -78 -18 -78 -22 0 -4 24 -15 53 -24 132 -42 275
-161 340 -284 69 -133 70 -138 75 -635 l4 -448 -211 0 -211 0 0 418 c0 416 0
417 -24 467 -25 55 -90 119 -142 141 -48 20 -160 18 -209 -5 -51 -24 -112 -85
-136 -136 -17 -36 -19 -69 -19 -324 l0 -284 31 -51 c87 -143 187 -237 331
-312 128 -65 216 -86 368 -86 152 0 241 21 368 87 271 140 432 405 432 709 0
321 -166 585 -455 726 -158 77 -333 99 -517 63z"/>
<path d="M2183 1532 l-83 -3 0 -124 0 -125 -90 0 -90 0 0 -80 0 -80 90 0 90 0
0 -313 c0 -352 5 -384 65 -454 19 -23 56 -52 83 -65 42 -21 63 -23 215 -26
l167 -4 0 81 0 81 -125 0 c-149 0 -177 10 -206 73 -17 38 -19 69 -19 335 l0
292 175 0 175 0 0 80 0 80 -175 0 -175 0 0 124 c0 69 -3 126 -7 128 -5 2 -45
2 -90 0z"/>
<path d="M3575 1287 c-109 -36 -173 -98 -208 -201 -6 -17 -13 -158 -16 -313
-6 -266 -7 -283 -27 -310 -32 -42 -81 -67 -133 -67 -58 0 -103 26 -130 74 -20
36 -21 50 -21 424 l0 386 -95 0 -95 0 0 -352 c0 -195 5 -382 10 -417 19 -114
81 -201 173 -242 45 -21 67 -24 162 -24 129 1 178 18 245 85 81 81 84 97 90
420 5 263 7 288 25 320 29 48 75 72 136 72 55 0 87 -17 123 -66 20 -26 21 -45
26 -314 5 -272 6 -290 28 -337 53 -117 150 -176 297 -183 110 -5 185 19 253
81 95 89 102 126 102 587 l0 370 -95 0 -95 0 0 -386 c0 -431 0 -434 -68 -476
-72 -45 -174 -20 -217 52 -18 32 -20 56 -25 320 -5 276 -6 287 -29 334 -31 63
-84 116 -146 146 -61 29 -206 38 -270 17z"/>
<path d="M5141 1284 c-172 -46 -313 -187 -365 -363 -10 -33 -16 -92 -16 -151
0 -155 49 -278 150 -380 100 -100 227 -150 380 -150 156 0 284 51 385 154 101
103 147 221 147 376 0 47 -5 107 -11 135 -43 179 -194 332 -376 380 -74 19
-222 19 -294 -1z m272 -160 c86 -30 152 -96 199 -199 19 -42 23 -67 23 -155 0
-97 -2 -110 -32 -172 -54 -114 -133 -176 -251 -198 -260 -47 -464 194 -398
471 7 32 25 77 39 101 32 55 107 125 155 145 79 33 182 36 265 7z"/>
<path d="M6391 1284 c-168 -45 -294 -184 -321 -354 -5 -36 -10 -201 -10 -367
l0 -303 95 0 94 0 3 343 c3 329 4 344 25 382 53 98 151 157 263 157 90 0 157
-29 215 -94 71 -80 75 -102 75 -470 l0 -318 90 0 90 0 0 338 c0 282 -3 347
-16 393 -43 145 -159 253 -317 295 -67 18 -216 17 -286 -2z"/>
</g>
</svg>
