<?xml version="1.0" standalone="no"?>
<!DOCTYPE svg PUBLIC "-//W3C//DTD SVG 20010904//EN"
 "http://www.w3.org/TR/2001/REC-SVG-20010904/DTD/svg10.dtd">
<svg version="1.0" xmlns="http://www.w3.org/2000/svg"
 width="439.000000pt" height="483.000000pt" viewBox="0 0 439.000000 483.000000"
 preserveAspectRatio="xMidYMid meet">

<g transform="translate(0.000000,483.000000) scale(0.100000,-0.100000)"
fill="#000000" stroke="none">
<path d="M1985 4348 c-44 -5 -90 -9 -102 -9 -12 1 -24 -3 -28 -8 -3 -5 -15 -7
-27 -3 -12 3 -19 1 -15 -4 3 -6 -7 -9 -25 -8 -45 3 -60 -5 -53 -30 4 -14 3
-17 -3 -8 -5 7 -13 12 -18 11 -5 -1 -17 1 -27 5 -22 10 -299 -82 -290 -97 3
-6 1 -7 -4 -4 -12 8 -124 -39 -135 -56 -4 -7 -8 -9 -8 -4 0 12 -60 -22 -60
-34 0 -6 -4 -7 -10 -4 -5 3 -10 1 -10 -4 0 -6 5 -11 12 -11 6 0 8 -3 5 -6 -4
-4 -13 -2 -20 4 -10 9 -19 8 -35 -4 -12 -8 -20 -19 -17 -24 3 -5 -4 -7 -15 -5
-11 2 -20 0 -20 -6 0 -5 -7 -9 -15 -9 -9 0 -18 -7 -21 -15 -4 -8 -10 -13 -14
-10 -4 3 -19 -6 -31 -20 -13 -13 -28 -25 -32 -25 -26 0 -189 -149 -180 -163 3
-6 2 -7 -4 -4 -5 3 -34 -19 -64 -49 -50 -51 -53 -56 -36 -69 18 -13 17 -14 -2
-20 -12 -3 -18 -11 -15 -17 5 -7 2 -8 -6 -3 -10 6 -9 11 4 21 12 8 14 14 6 19
-13 8 -42 -14 -34 -26 3 -5 1 -9 -5 -9 -6 0 -29 -24 -51 -52 -22 -29 -44 -58
-49 -63 -29 -37 -108 -165 -98 -159 6 4 9 4 5 -1 -4 -4 -3 -15 2 -25 6 -12 5
-17 -5 -17 -7 0 -11 6 -8 14 3 7 1 13 -4 13 -7 0 -53 -80 -58 -100 0 -3 -11
-25 -24 -49 -13 -26 -17 -40 -9 -36 7 3 5 0 -5 -8 -10 -8 -19 -24 -20 -36 -1
-12 -4 -21 -8 -21 -4 0 -11 -15 -15 -32 -9 -36 -9 -34 2 -63 l7 -20 -17 20
c-12 14 -16 16 -15 5 1 -8 -6 -32 -15 -54 -9 -21 -15 -41 -12 -44 3 -3 1 -11
-5 -19 -9 -10 -8 -13 2 -13 8 0 6 -5 -6 -13 -10 -8 -15 -19 -11 -25 3 -6 2
-13 -3 -16 -8 -5 -16 -35 -28 -108 -3 -18 0 -28 8 -28 8 0 7 -4 -3 -12 -47
-36 -51 -600 -6 -656 11 -13 11 -14 -1 -8 -11 7 -11 5 -4 -9 6 -10 8 -26 6
-36 -3 -11 0 -19 6 -19 7 0 10 -4 7 -9 -4 -5 6 -19 21 -31 l28 -22 -28 17
c-28 16 -29 16 -23 -2 3 -10 8 -31 12 -48 4 -16 11 -36 17 -43 5 -6 6 -12 2
-12 -4 0 -2 -6 4 -13 6 -8 9 -16 6 -19 -7 -7 53 -172 64 -176 5 -2 7 -10 4
-19 -4 -10 -2 -14 4 -10 6 4 11 1 10 -6 -1 -33 4 -47 18 -47 8 0 15 -5 15 -11
0 -5 -4 -8 -9 -5 -4 3 -1 -10 7 -29 9 -19 20 -31 25 -28 6 4 7 1 3 -6 -5 -7
-2 -20 6 -29 8 -9 23 -36 33 -60 11 -25 24 -41 31 -38 7 3 10 -2 7 -15 -3 -11
0 -19 8 -19 7 0 9 -3 6 -7 -14 -13 24 -40 52 -37 29 3 50 -19 30 -31 -5 -4 -8
-1 -7 5 2 7 -7 14 -19 16 -26 4 -30 -8 -8 -30 8 -8 15 -18 15 -21 0 -17 63
-84 72 -79 7 5 8 2 4 -5 -9 -15 21 -51 42 -51 8 0 12 -6 8 -15 -6 -16 26 -39
39 -27 5 4 5 1 1 -6 -5 -9 7 -29 36 -58 35 -36 48 -43 68 -39 23 6 24 5 7 -7
-17 -13 -17 -15 -3 -27 9 -8 16 -10 16 -6 0 4 9 -4 21 -19 21 -27 78 -39 63
-13 -4 6 -3 8 1 4 16 -14 14 -36 -3 -30 -10 2 3 -13 28 -35 25 -22 47 -39 51
-37 3 2 18 -8 34 -23 16 -15 33 -26 37 -25 5 2 8 -2 8 -8 0 -8 5 -7 15 1 13
11 14 10 10 -1 -3 -9 16 -27 55 -51 63 -40 76 -45 64 -26 -4 7 -3 8 5 4 6 -4
9 -11 6 -16 -7 -11 24 -22 37 -13 6 3 8 2 5 -4 -4 -6 5 -15 20 -22 22 -10 25
-10 17 1 -5 8 -2 6 7 -3 21 -22 80 -47 98 -41 8 3 11 0 7 -7 -4 -6 -3 -11 3
-11 5 0 12 6 14 13 3 7 6 4 6 -6 1 -10 6 -15 11 -12 5 3 10 1 10 -4 0 -6 5
-11 11 -11 6 0 9 6 6 14 -8 19 28 52 39 35 4 -7 3 -10 -3 -6 -6 4 -17 -1 -24
-10 -12 -15 -12 -16 5 -10 16 6 17 5 7 -7 -14 -16 2 -32 21 -20 7 4 8 3 4 -4
-5 -8 0 -12 12 -12 11 0 35 -7 55 -15 19 -8 37 -11 41 -8 11 11 36 12 36 1 0
-6 -7 -7 -16 -4 -9 3 -12 2 -8 -5 3 -6 15 -9 25 -6 11 3 19 2 19 -3 0 -8 73
-24 217 -46 120 -18 439 -19 447 -1 3 9 5 9 5 0 1 -7 7 -11 14 -8 6 2 30 6 52
9 115 14 145 19 145 25 0 3 10 7 23 7 36 3 91 15 110 25 9 5 17 7 17 3 0 -3 7
-1 16 6 8 8 30 15 47 17 18 2 33 8 35 13 2 5 9 7 17 4 7 -3 16 0 20 5 3 6 11
9 16 6 5 -4 9 -1 9 6 0 7 3 9 7 6 3 -4 18 3 32 15 19 17 22 18 11 4 -15 -19
-14 -19 15 -4 17 8 56 27 89 42 32 15 56 30 52 33 -3 3 -14 0 -23 -8 -16 -13
-17 -12 -4 4 8 10 21 15 32 12 20 -7 68 15 88 39 7 9 18 13 24 9 6 -4 7 -1 3
6 -5 8 -3 11 5 10 22 -3 50 12 42 24 -4 6 -1 7 6 3 15 -10 53 23 44 37 -3 5
-2 7 4 4 13 -8 84 38 140 91 23 22 44 38 46 36 2 -2 52 45 111 106 69 69 105
113 100 121 -4 7 -3 9 3 6 15 -10 43 29 30 42 -6 6 -7 11 -1 11 5 0 3 4 -4 9
-11 7 -11 9 1 14 12 4 15 0 12 -14 -3 -13 0 -19 8 -16 7 2 12 12 12 23 0 10 5
19 10 19 6 0 16 4 23 9 11 6 11 11 0 24 -11 13 -11 14 0 8 15 -9 45 12 36 25
-3 5 -1 9 5 9 13 0 42 55 34 64 -4 3 -2 6 4 6 6 0 18 12 28 26 9 15 12 23 6
20 -6 -4 -11 -2 -11 3 0 6 6 11 13 11 6 0 24 22 39 48 21 38 25 51 15 61 -9
10 -8 11 6 6 9 -4 18 -2 18 4 3 20 4 26 12 39 5 6 5 12 0 12 -4 0 -3 4 3 8 7
4 19 23 27 43 14 33 13 38 -1 55 -15 16 -15 17 -1 6 16 -12 25 -4 35 33 1 6 9
27 18 48 9 21 14 42 11 47 -4 6 -2 10 4 10 5 0 8 11 7 25 -2 13 0 22 4 20 4
-3 11 10 14 28 3 17 9 43 12 57 24 101 34 167 39 243 2 48 6 91 9 95 8 14 7
214 -1 209 -4 -3 -9 35 -10 83 -1 48 -7 108 -14 132 -7 23 -13 60 -15 82 -1
21 -6 46 -10 55 -4 9 -8 27 -10 40 -2 13 -6 31 -10 40 -4 9 -8 19 -9 24 -2 4
-3 8 -4 10 -2 1 -4 12 -7 25 -6 34 -53 165 -62 171 -4 4 -8 13 -10 21 -5 28
-67 150 -76 150 -4 0 -2 -8 5 -17 13 -16 12 -17 -4 -4 -12 9 -14 17 -7 26 11
14 -16 59 -31 50 -5 -3 -6 1 -3 9 8 20 -15 59 -31 52 -9 -3 -12 0 -9 9 7 17
-21 71 -43 84 -10 6 -14 11 -10 11 5 0 -1 14 -13 31 -14 19 -28 28 -38 24 -12
-4 -12 -3 -3 8 9 11 8 17 -4 27 -13 11 -19 9 -38 -6 -22 -19 -22 -19 -4 2 23
27 22 30 -14 69 -19 20 -38 31 -48 28 -13 -4 -13 -3 -2 5 20 14 -28 66 -52 56
-9 -3 -15 -10 -12 -14 3 -5 -5 -6 -16 -3 -20 6 -20 7 6 17 l27 11 -33 38 c-24
27 -38 36 -53 31 -15 -4 -17 -3 -8 4 21 14 -95 114 -118 102 -12 -6 -17 -5
-17 5 0 8 5 11 11 8 33 -18 -29 32 -94 75 -57 39 -78 48 -88 40 -10 -9 -12 -8
-10 3 2 8 -5 14 -14 14 -10 0 -23 7 -30 15 -11 12 -11 12 5 1 9 -7 17 -9 17
-4 0 11 -65 46 -85 46 -8 0 -15 4 -15 9 0 4 -7 8 -15 8 -8 0 -15 5 -15 11 0 8
-5 7 -16 -1 -12 -11 -15 -11 -12 1 2 8 -4 13 -14 13 -10 -1 -16 1 -13 5 2 4
-16 14 -40 23 -41 16 -43 15 -38 0 4 -13 3 -14 -5 -3 -6 8 -15 10 -23 5 -12
-6 -12 -5 0 9 11 14 11 17 0 19 -25 2 -34 5 -69 20 -19 9 -63 24 -97 33 -51
14 -66 15 -78 5 -13 -11 -14 -10 -9 4 6 16 -5 20 -63 19 -13 0 -23 4 -23 10 0
5 -13 7 -29 4 -15 -3 -32 -2 -37 3 -12 11 -223 30 -320 29 -43 -1 -115 -6
-159 -11z m519 -36 c3 -5 -1 -9 -9 -9 -8 0 -12 4 -9 9 3 4 7 8 9 8 2 0 6 -4 9
-8z m-701 -22 c10 -10 9 -11 -3 -4 -8 5 -21 9 -28 10 -8 2 -17 5 -20 8 -3 4 4
5 16 3 12 -2 28 -9 35 -17z m30 5 c-3 -9 -8 -14 -10 -11 -3 3 -2 9 2 15 9 16
15 13 8 -4z m760 -10 c-3 -9 -8 -14 -10 -11 -3 3 -2 9 2 15 9 16 15 13 8 -4z
m-689 -3 c2 -4 -4 -8 -14 -8 -10 0 -16 4 -14 8 3 4 9 8 14 8 5 0 11 -4 14 -8z
m541 -2 c3 -6 -1 -7 -9 -4 -18 7 -21 14 -7 14 6 0 13 -4 16 -10z m-1090 -110
c-3 -5 -12 -10 -18 -10 -7 0 -6 4 3 10 19 12 23 12 15 0z m-162 -123 c4 3 7 4
7 0 0 -17 -20 -14 -36 6 -19 22 -19 22 2 4 11 -9 24 -14 27 -10z m-156 -72 c0
-8 -4 -12 -9 -9 -5 3 -6 10 -3 15 9 13 12 11 12 -6z m2283 0 c0 -2 -6 -5 -13
-8 -8 -3 -14 1 -14 8 0 7 6 11 14 8 7 -3 13 -6 13 -8z m-2383 -62 c-4 -3 1
-16 10 -27 18 -21 18 -21 -4 -2 -20 16 -23 36 -6 36 4 0 3 -3 0 -7z m2465 -11
c-7 -2 -9 -9 -5 -15 3 -7 2 -8 -2 -4 -16 14 -14 36 3 29 10 -4 12 -7 4 -10z
m-2537 -62 c-3 -5 -12 -10 -18 -10 -7 0 -6 4 3 10 19 12 23 12 15 0z m2619 2
c-6 -4 -10 -15 -8 -25 1 -9 -1 -15 -6 -12 -7 4 -7 22 -1 43 1 1 7 2 14 2 8 0
9 -3 1 -8z m-2728 -97 c-1 -8 -6 -18 -11 -22 -4 -4 -5 -2 -1 5 4 7 2 12 -6 12
-9 0 -9 3 2 10 19 12 19 13 16 -5z m2881 -90 c0 -8 -4 -12 -9 -9 -5 3 -6 10
-3 15 9 13 12 11 12 -6z m-2922 -15 c3 -6 -1 -7 -9 -4 -18 7 -21 14 -7 14 6 0
13 -4 16 -10z m2995 -14 c0 -2 -8 -10 -17 -17 -16 -13 -17 -12 -4 4 13 16 21
21 21 13z m-3083 -43 c-4 -3 -1 -13 6 -21 11 -13 9 -14 -10 -1 -16 9 -19 16
-10 21 15 9 23 10 14 1z m3156 -90 c-3 -7 -6 -13 -8 -13 -2 0 -5 6 -8 13 -3 8
1 14 8 14 7 0 11 -6 8 -14z m97 -148 c-7 -9 -15 -13 -19 -10 -3 3 1 10 9 15
21 14 24 12 10 -5z m-2744 -44 c-3 -4 4 -17 16 -27 16 -14 22 -16 25 -6 4 10
8 10 21 0 9 -8 13 -8 9 -2 -4 7 0 15 9 18 8 3 12 2 9 -4 -3 -6 4 -10 17 -10
18 0 20 2 8 10 -8 5 -12 10 -7 10 4 0 16 -6 27 -12 16 -10 22 -10 32 1 11 11
10 12 -1 6 -9 -5 -12 -4 -7 3 5 8 13 9 24 3 9 -5 78 -10 152 -10 74 -1 146 -5
159 -8 21 -5 23 -3 18 13 -6 17 -6 17 6 3 8 -11 36 -19 79 -23 37 -4 80 -11
95 -15 15 -4 36 -7 46 -5 9 1 17 -2 17 -8 0 -6 7 -4 17 3 9 8 14 9 10 2 -6
-10 14 -23 43 -28 3 0 20 -9 38 -18 18 -10 38 -15 44 -11 6 4 8 3 5 -3 -3 -5
8 -20 25 -33 17 -12 28 -18 25 -13 -3 5 0 10 7 10 7 0 13 -7 12 -15 0 -8 6
-19 15 -25 13 -8 24 -5 48 15 17 15 53 37 80 50 33 15 49 28 45 37 -3 11 -1
11 10 2 10 -9 21 -9 42 0 16 6 40 13 54 15 111 16 175 31 175 41 0 7 6 18 14
25 12 11 12 10 5 -2 -13 -23 -14 -42 -1 -37 7 3 11 10 9 16 -1 7 2 10 8 6 6
-3 8 -10 6 -14 -3 -4 18 -6 47 -4 29 2 99 4 157 6 77 2 104 6 102 15 -1 6 3
12 8 12 6 0 10 -8 8 -17 -3 -15 5 -18 48 -19 28 -1 55 -3 60 -6 13 -8 115 -23
137 -20 9 1 17 -2 17 -7 0 -13 39 -21 47 -9 4 7 1 8 -7 3 -9 -5 -11 -4 -6 3 5
8 13 9 25 2 12 -6 22 -5 31 3 12 10 12 9 1 -5 -7 -10 -20 -14 -29 -11 -12 4
-14 3 -7 -4 6 -6 21 -14 35 -18 17 -4 21 -3 11 3 -9 7 -10 12 -2 16 6 4 11 3
11 -2 0 -13 29 -43 69 -71 27 -19 35 -21 43 -10 8 11 9 11 5 -2 -3 -10 8 -29
30 -50 20 -19 33 -29 29 -22 -3 6 -2 14 3 18 6 3 8 -4 6 -15 -2 -12 5 -32 17
-46 12 -13 23 -32 24 -41 2 -10 10 -23 18 -29 9 -6 13 -14 9 -17 -3 -4 2 -17
13 -29 10 -12 13 -18 5 -13 -10 6 -12 4 -5 -6 4 -8 10 -23 11 -34 2 -11 7 -21
12 -23 4 -1 6 -14 3 -29 -3 -14 -1 -23 4 -20 5 3 9 -7 10 -21 2 -65 8 -122 13
-122 3 0 5 -41 3 -91 -3 -75 0 -94 14 -110 16 -17 16 -19 0 -25 -14 -5 -17
-20 -16 -83 1 -42 -1 -89 -4 -106 -4 -16 -9 -46 -12 -65 -3 -19 -8 -46 -11
-60 -2 -14 -17 -51 -32 -82 -15 -31 -22 -54 -16 -52 5 3 3 -1 -5 -8 -8 -8 -35
-35 -59 -60 l-44 -47 29 4 c16 2 72 4 123 6 l95 2 -3 -111 c-1 -61 1 -117 5
-124 13 -20 15 -46 4 -53 -5 -3 -7 0 -4 8 4 11 -9 15 -66 16 -56 1 -70 -1 -64
-11 6 -10 3 -9 -9 1 -14 11 -20 11 -34 0 -12 -10 -15 -10 -9 -1 6 10 -91 12
-493 10 -276 -2 -501 0 -501 5 0 4 -5 7 -11 7 -6 0 -9 -6 -6 -13 3 -8 -1 -14
-8 -14 -7 0 -11 7 -8 15 4 9 0 13 -13 11 -10 -1 -26 0 -34 4 -28 10 -67 17
-72 11 -3 -3 -264 -5 -579 -5 -316 0 -568 -3 -561 -6 6 -2 12 -10 12 -16 0 -6
-11 0 -24 12 -19 18 -33 22 -60 19 -19 -2 -32 0 -30 4 3 4 -6 8 -19 8 -13 0
-48 7 -78 16 -30 9 -58 17 -64 18 -12 3 -65 33 -112 64 -41 27 -47 27 -39 5 5
-16 4 -15 -9 1 -8 10 -12 22 -10 27 3 4 -9 19 -26 33 -17 14 -28 26 -25 26 4
0 -10 22 -29 50 -19 28 -32 50 -29 50 4 0 -1 11 -10 25 -9 14 -13 25 -10 25 4
0 -1 10 -12 22 -10 12 -13 18 -7 14 9 -5 11 -2 7 8 -3 9 -11 13 -18 9 -6 -4
-5 1 3 10 9 12 10 17 2 17 -7 0 -10 4 -7 8 7 12 -13 154 -25 176 -6 10 -7 16
-2 13 4 -3 8 101 7 231 0 131 3 239 7 242 4 3 10 25 13 50 7 53 29 136 39 146
13 13 7 26 -9 20 -8 -3 -12 -2 -9 4 3 6 13 10 21 10 8 0 14 5 14 10 0 18 3 25
22 45 10 10 17 24 14 30 -2 7 18 31 45 54 43 37 48 45 37 59 -12 15 -11 16 5
3 14 -11 20 -11 35 0 9 8 20 19 24 24 4 6 11 10 15 11 26 3 72 27 67 35 -3 5
2 6 10 3 9 -3 16 -2 16 2 0 5 12 10 26 10 14 1 33 9 43 18 10 9 22 16 27 16 5
0 2 -5 -6 -10 -11 -7 -5 -8 20 -4 19 4 38 11 43 15 4 5 4 7 1 4 -4 -3 -13 0
-21 6 -10 9 -10 15 -2 25 13 15 23 19 15 5z m1769 -11 c-3 -5 -12 -10 -18 -10
-7 0 -6 4 3 10 19 12 23 12 15 0z m-1099 -13 c3 -3 -8 -4 -25 -3 -17 1 -33 5
-36 8 -3 3 8 5 25 3 17 -1 33 -5 36 -8z m47 6 c-7 -2 -19 -2 -25 0 -7 3 -2 5
12 5 14 0 19 -2 13 -5z m200 -67 c-4 -5 0 -7 8 -4 10 4 15 -1 16 -13 1 -13 -2
-16 -10 -8 -7 5 -20 15 -30 22 -17 12 -17 13 2 13 11 0 17 -5 14 -10z m-1658
-16 c3 -6 -1 -7 -9 -4 -18 7 -21 14 -7 14 6 0 13 -4 16 -10z m-5 -30 c6 -12 5
-17 -5 -17 -8 0 -12 4 -9 9 4 5 -2 16 -12 24 -17 13 -17 14 -1 8 10 -4 22 -14
27 -24z m3560 6 c-7 -7 -13 -7 -20 0 -6 6 -3 10 10 10 13 0 16 -4 10 -10z m75
-85 c3 -5 2 -12 -3 -15 -5 -3 -9 1 -9 9 0 17 3 19 12 6z m-3707 -26 c-3 -3 -9
2 -12 12 -6 14 -5 15 5 6 7 -7 10 -15 7 -18z m3267 -103 c-3 -3 -11 0 -18 7
-9 10 -8 11 6 5 10 -3 15 -9 12 -12z m13 -37 c-3 -3 -9 2 -12 12 -6 14 -5 15
5 6 7 -7 10 -15 7 -18z m66 -131 c3 -8 2 -12 -4 -9 -6 3 -10 10 -10 16 0 14 7
11 14 -7z m-3427 -19 c0 -8 -4 -12 -9 -9 -5 3 -6 10 -3 15 9 13 12 11 12 -6z
m353 -160 c-7 -9 -15 -13 -19 -10 -3 3 1 10 9 15 21 14 24 12 10 -5z m3064
-487 c-9 -14 -23 2 -17 18 4 12 8 13 14 3 4 -7 5 -17 3 -21z m9 -63 c-3 -9 -8
-14 -10 -11 -3 3 -2 9 2 15 9 16 15 13 8 -4z m464 -89 c0 -8 -6 -12 -15 -9
-11 5 -11 7 0 14 7 5 13 9 14 9 0 0 1 -6 1 -14z m-3452 -75 c3 -5 2 -12 -3
-15 -5 -3 -9 1 -9 9 0 17 3 19 12 6z m2895 -1 c0 -5 -8 -10 -17 -10 -15 0 -16
2 -3 10 19 12 20 12 20 0z m-2658 -227 c-6 -2 -10 -8 -8 -12 3 -4 -1 -8 -9 -8
-11 0 -12 4 -4 14 6 7 17 13 23 12 7 0 6 -2 -2 -6z m248 -103 c6 -11 8 -20 6
-20 -3 0 -10 9 -16 20 -6 11 -8 20 -6 20 3 0 10 -9 16 -20z m1205 2 c-3 -3
-11 0 -18 7 -9 10 -8 11 6 5 10 -3 15 -9 12 -12z m1578 -57 c-3 -9 -8 -14 -10
-11 -3 3 -2 9 2 15 9 16 15 13 8 -4z m18 -18 c-10 -9 -11 -8 -5 6 3 10 9 15
12 12 3 -3 0 -11 -7 -18z m-3564 -22 c0 -8 -4 -12 -9 -9 -5 3 -6 10 -3 15 9
13 12 11 12 -6z m61 -120 c2 -1 -5 -6 -15 -9 -9 -4 -14 -4 -10 0 4 4 -1 13
-11 21 -15 12 -14 13 8 2 14 -6 26 -13 28 -14z m134 -212 c-6 -3 -10 -9 -6
-14 3 -5 1 -9 -4 -9 -21 0 -19 26 2 27 11 0 15 -1 8 -4z m92 -119 c3 -8 2 -12
-4 -9 -6 3 -10 10 -10 16 0 14 7 11 14 -7z m2931 -43 c3 -5 2 -12 -3 -15 -5
-3 -9 1 -9 9 0 17 3 19 12 6z m-95 -115 c0 -2 -7 -9 -15 -16 -13 -11 -14 -10
-9 4 5 14 24 23 24 12z m-2497 -123 c3 -5 -6 -9 -20 -10 -19 -1 -22 1 -12 8
17 11 26 11 32 2z m2285 -28 c-3 -3 -9 2 -12 12 -6 14 -5 15 5 6 7 -7 10 -15
7 -18z m-165 -80 c-3 -9 -8 -14 -10 -11 -3 3 -2 9 2 15 9 16 15 13 8 -4z
m-453 -217 c0 -4 -4 -8 -9 -8 -6 0 -12 4 -15 8 -3 5 1 9 9 9 8 0 15 -4 15 -9z
m-935 -8 c3 -6 -1 -7 -9 -4 -18 7 -21 14 -7 14 6 0 13 -4 16 -10z"/>
<path d="M1277 3005 c-83 -17 -160 -52 -207 -95 -19 -17 -29 -29 -22 -25 6 3
12 2 12 -3 0 -6 -6 -12 -14 -15 -16 -6 -57 -87 -50 -99 3 -4 1 -8 -4 -8 -17 0
-19 -48 -3 -66 15 -16 15 -17 0 -6 -14 11 -18 8 -23 -15 -4 -16 -9 -102 -12
-193 -5 -144 0 -240 19 -325 15 -67 29 -105 38 -105 6 0 8 -4 5 -9 -3 -4 10
-26 29 -47 19 -21 35 -43 35 -48 0 -4 7 -6 15 -2 8 3 14 2 14 -2 -3 -20 3 -23
18 -11 15 12 16 12 9 -6 -4 -11 -4 -16 0 -12 4 4 21 -2 38 -12 36 -23 151 -45
201 -39 18 2 31 0 29 -4 -3 -4 27 -8 65 -8 39 0 71 3 71 8 0 4 35 8 77 8 44 1
79 6 81 12 2 6 10 8 18 5 8 -3 20 -1 27 5 6 6 15 11 20 11 4 1 8 1 10 2 1 0
11 2 22 4 11 2 25 12 33 22 7 10 16 18 20 18 4 0 6 3 5 7 -2 5 0 7 5 7 28 -5
33 4 10 17 -28 15 -37 34 -17 34 5 0 7 -5 3 -12 -5 -8 -2 -9 10 -5 10 4 15 3
11 -3 -3 -6 1 -10 9 -10 20 0 50 46 40 61 -4 7 -3 9 3 6 6 -4 13 0 16 8 4 10
1 12 -11 8 -10 -3 -8 1 6 12 22 16 22 18 8 41 -9 13 -16 27 -16 31 0 4 5 1 10
-7 8 -12 10 -11 10 6 0 11 -3 23 -6 26 -6 7 -7 445 -1 455 3 5 4 29 3 55 -1
25 2 44 6 42 11 -7 10 14 -3 59 -6 23 -14 35 -21 31 -7 -4 -8 -2 -4 5 12 18
-44 96 -90 126 -23 15 -59 11 -49 -5 3 -5 1 -11 -4 -14 -10 -7 -9 13 2 30 7
12 -19 25 -88 43 -48 13 -78 14 -71 3 3 -5 -1 -9 -9 -9 -8 0 -13 5 -12 11 3
17 -244 17 -326 1z m548 -74 c3 -5 2 -12 -3 -15 -5 -3 -9 1 -9 9 0 17 3 19 12
6z m65 -66 c0 5 5 4 12 -3 9 -9 9 -15 -1 -24 -10 -11 -11 -10 -5 5 4 12 2 16
-7 12 -8 -3 -20 5 -28 17 -14 23 -14 23 8 4 11 -11 21 -15 21 -11z m-32 -20
c-3 -3 -9 2 -12 12 -6 14 -5 15 5 6 7 -7 10 -15 7 -18z m-798 11 c0 -2 -7 -7
-16 -10 -8 -3 -12 -2 -9 4 6 10 25 14 25 6z m-27 -49 c3 -8 -1 -14 -8 -14 -7
0 -11 6 -8 14 3 7 6 13 8 13 2 0 5 -6 8 -13z m2 -107 c-3 -5 -12 -10 -18 -10
-7 0 -6 4 3 10 19 12 23 12 15 0z m-21 -552 c-5 -8 -1 -9 12 -4 14 5 16 4 8
-4 -6 -6 -19 -8 -28 -4 -14 5 -15 9 -4 15 18 12 20 11 12 -3z m3 -53 c0 -8 -4
-12 -9 -9 -5 3 -6 10 -3 15 9 13 12 11 12 -6z m67 -111 c3 -8 2 -12 -4 -9 -6
3 -10 10 -10 16 0 14 7 11 14 -7z m697 -51 c13 -16 12 -17 -3 -4 -10 7 -18 15
-18 17 0 8 8 3 21 -13z m-596 -21 c-3 -3 -11 0 -18 7 -9 10 -8 11 6 5 10 -3
15 -9 12 -12z"/>
<path d="M2616 2990 c-33 -6 -65 -15 -70 -21 -8 -9 -8 -10 0 -6 6 3 11 -1 11
-9 0 -13 -2 -13 -15 0 -17 17 -64 5 -98 -25 -11 -11 -23 -17 -26 -14 -2 3 -16
-8 -31 -24 -27 -30 -25 -50 2 -28 14 10 14 10 3 -5 -8 -9 -20 -14 -27 -12 -15
6 -38 -29 -27 -40 4 -4 -1 -12 -11 -17 -15 -9 -16 -22 -11 -121 3 -61 9 -119
12 -129 7 -19 -3 -261 -14 -339 -12 -90 -12 -122 3 -160 9 -22 19 -37 23 -35
4 3 7 -3 6 -13 0 -9 5 -16 12 -15 6 2 12 -3 12 -10 0 -30 86 -84 165 -106 22
-5 69 -13 105 -16 61 -6 64 -5 45 10 -20 16 -19 16 3 5 12 -6 22 -15 22 -20 0
-6 21 -10 48 -10 77 0 212 12 208 19 -2 3 14 7 37 8 47 2 127 30 127 44 0 6 5
7 10 4 19 -12 132 116 116 132 -3 4 1 15 11 25 10 12 12 18 4 18 -8 0 -7 6 4
17 10 9 15 26 12 40 -2 12 -1 23 4 23 15 0 15 74 0 86 -11 9 -12 12 -1 19 9 5
11 4 6 -3 -4 -7 -2 -12 3 -12 7 0 11 38 11 106 0 81 -3 104 -12 98 -10 -6 -10
-4 0 7 19 20 11 196 -8 184 -5 -3 -6 4 -3 15 7 26 -16 111 -28 104 -5 -3 -6 2
-3 10 7 18 -24 79 -37 71 -5 -4 -9 -3 -8 2 1 4 1 14 0 20 -1 17 -81 74 -92 67
-5 -3 -9 -1 -9 5 0 10 -58 32 -95 36 -11 1 -20 3 -20 4 0 15 -299 23 -379 11z
m439 -51 c-4 -5 -14 -9 -23 -8 -14 0 -13 2 3 9 17 7 17 9 3 9 -10 1 -18 6 -18
11 0 7 7 7 20 0 11 -6 18 -15 15 -21z m-572 -12 c7 3 8 2 4 -2 -14 -16 -36
-14 -29 3 4 10 7 12 10 4 2 -7 9 -9 15 -5z m707 -42 c7 -9 8 -15 2 -15 -5 0
-12 7 -16 15 -3 8 -4 15 -2 15 2 0 9 -7 16 -15z m-800 -99 c0 -3 -4 -8 -10
-11 -5 -3 -10 -1 -10 4 0 6 5 11 10 11 6 0 10 -2 10 -4z m831 -719 c-10 -9
-11 -8 -5 6 3 10 9 15 12 12 3 -3 0 -11 -7 -18z m29 -38 c0 -5 -4 -9 -8 -9 -5
0 -9 7 -9 15 0 8 4 12 9 9 4 -3 8 -9 8 -15z m-10 -24 c0 -2 -6 -5 -13 -8 -8
-3 -14 1 -14 8 0 7 6 11 14 8 7 -3 13 -6 13 -8z m-779 -68 c-6 -8 -9 -16 -6
-19 3 -2 -2 -5 -10 -5 -13 0 -13 3 2 19 19 21 31 25 14 5z"/>
<path d="M1700 4299 c0 -5 5 -7 10 -4 6 3 10 8 10 11 0 2 -4 4 -10 4 -5 0 -10
-5 -10 -11z"/>
</g>
</svg>
