<?xml version="1.0" standalone="no"?>
<!DOCTYPE svg PUBLIC "-//W3C//DTD SVG 20010904//EN"
 "http://www.w3.org/TR/2001/REC-SVG-20010904/DTD/svg10.dtd">
<svg version="1.0" xmlns="http://www.w3.org/2000/svg"
 width="511.000000pt" height="196.000000pt" viewBox="0 0 511.000000 196.000000"
 preserveAspectRatio="xMidYMid meet">

<g transform="translate(0.000000,196.000000) scale(0.100000,-0.100000)"
fill="#000000" stroke="none">
<path d="M830 1785 c-316 -60 -559 -297 -635 -616 -19 -83 -19 -265 0 -349 57
-246 213 -441 440 -550 85 -41 182 -70 234 -70 l31 0 0 155 0 154 -42 11 c-24
5 -77 27 -118 47 -263 131 -361 464 -217 738 62 117 188 215 322 250 75 19
214 19 288 0 175 -45 314 -176 368 -344 30 -92 30 -250 1 -341 -57 -176 -194
-302 -379 -350 l-43 -11 0 -156 0 -156 43 6 c182 25 394 158 509 320 104 148
148 285 148 467 0 121 -15 205 -52 300 -139 357 -521 568 -898 495z"/>
<path d="M4303 1496 c-84 -21 -163 -67 -233 -136 -77 -76 -125 -162 -145 -257
-41 -193 9 -370 144 -504 105 -104 217 -149 376 -149 153 0 258 39 362 134 68
62 107 118 140 203 24 61 27 81 27 193 0 112 -3 132 -27 193 -34 86 -72 141
-142 205 -62 57 -153 104 -233 121 -69 14 -203 13 -269 -3z m293 -177 c181
-86 252 -327 154 -525 -82 -167 -275 -236 -446 -159 -73 33 -129 87 -166 163
-31 63 -33 72 -33 182 0 104 3 120 26 170 88 184 285 255 465 169z"/>
<path d="M1900 1152 c0 -282 3 -347 16 -393 22 -75 56 -128 117 -186 91 -85
195 -123 343 -123 182 0 330 76 411 211 58 97 63 137 63 501 l0 328 -90 0 -90
0 0 -293 c0 -166 -5 -319 -11 -353 -26 -146 -136 -236 -289 -237 -116 0 -215
62 -262 167 -22 50 -23 61 -26 384 l-3 332 -90 0 -89 0 0 -338z"/>
<path d="M3503 1475 c-191 -42 -351 -190 -399 -370 -18 -65 -18 -186 0 -251
22 -85 74 -170 142 -233 111 -104 241 -150 422 -151 l92 0 0 79 0 79 -117 4
c-105 3 -124 7 -171 31 -110 57 -171 139 -193 259 -31 168 78 344 244 393 29
9 90 15 144 15 l93 0 0 80 0 80 -97 -1 c-54 0 -126 -7 -160 -14z"/>
<path d="M890 1401 c-94 -29 -184 -114 -221 -209 -32 -81 -32 -223 0 -304 27
-71 105 -159 166 -188 90 -43 220 -44 309 -1 182 89 253 356 143 544 -36 61
-117 132 -174 151 -49 17 -178 20 -223 7z"/>
</g>
</svg>
