<?xml version="1.0" standalone="no"?>
<!DOCTYPE svg PUBLIC "-//W3C//DTD SVG 20010904//EN"
 "http://www.w3.org/TR/2001/REC-SVG-20010904/DTD/svg10.dtd">
<svg version="1.0" xmlns="http://www.w3.org/2000/svg"
 width="495.000000pt" height="504.000000pt" viewBox="0 0 495.000000 504.000000"
 preserveAspectRatio="xMidYMid meet">

<g transform="translate(0.000000,504.000000) scale(0.100000,-0.100000)"
fill="#000000" stroke="none">
<path d="M2245 4829 c-33 -4 -80 -9 -105 -13 -88 -10 -183 -34 -191 -48 -5 -7
-9 -8 -9 -2 0 7 -10 9 -25 6 -14 -2 -22 -9 -18 -15 3 -6 1 -7 -6 -3 -17 11
-53 -3 -44 -17 4 -8 1 -7 -9 1 -11 9 -18 10 -23 2 -3 -6 -10 -8 -15 -5 -5 3
-35 -5 -67 -17 -32 -12 -61 -21 -65 -20 -5 1 -8 -3 -8 -9 0 -6 -6 -9 -12 -6
-7 2 -22 -3 -32 -12 -11 -9 -16 -11 -13 -4 5 8 0 9 -22 0 -17 -6 -27 -15 -24
-21 3 -5 1 -6 -5 -3 -13 9 -44 -2 -37 -13 3 -5 0 -12 -6 -16 -8 -4 -9 -3 -5 4
4 7 3 12 -3 12 -5 0 -13 -5 -16 -10 -4 -6 -24 -18 -46 -26 -22 -9 -36 -21 -32
-27 3 -6 1 -7 -5 -3 -14 8 -112 -40 -112 -56 0 -6 -3 -9 -6 -5 -7 7 -91 -44
-128 -78 -14 -13 -29 -24 -32 -24 -13 2 -54 -42 -49 -51 4 -6 -1 -7 -11 -3
-12 4 -15 3 -10 -5 5 -8 2 -10 -8 -6 -9 3 -16 1 -16 -6 0 -6 -4 -9 -9 -6 -5 3
-23 -10 -40 -29 -17 -20 -31 -32 -31 -28 0 4 -16 -8 -35 -27 -19 -18 -32 -37
-29 -42 3 -4 0 -8 -6 -8 -16 0 -150 -132 -144 -142 3 -4 0 -8 -6 -8 -7 0 -10
-7 -6 -15 3 -8 2 -14 -2 -13 -12 2 -42 -14 -42 -23 0 -4 -11 -20 -25 -35 -14
-15 -24 -33 -21 -40 3 -9 -1 -11 -11 -7 -10 4 -14 2 -10 -4 4 -6 3 -13 -1 -15
-18 -7 -71 -91 -65 -102 3 -6 3 -8 -2 -4 -9 9 -70 -80 -61 -89 3 -3 -3 -13
-15 -21 -11 -7 -18 -19 -16 -25 1 -5 -7 -21 -19 -34 -13 -15 -20 -31 -17 -40
4 -10 2 -14 -4 -10 -7 4 -16 -6 -22 -25 -14 -39 -14 -41 2 -33 6 4 2 -2 -10
-12 -13 -10 -26 -33 -29 -50 -4 -18 -10 -33 -13 -33 -9 0 -45 -109 -44 -132 0
-10 -4 -15 -8 -12 -5 3 -10 -3 -11 -13 -2 -32 -3 -38 -10 -49 -6 -10 -41 -137
-53 -194 -29 -142 -33 -169 -45 -330 -10 -121 -3 -373 9 -366 3 2 7 -30 8 -72
1 -41 7 -80 12 -85 5 -5 7 -15 5 -22 -3 -7 2 -39 11 -71 9 -33 18 -71 20 -86
8 -54 28 -107 38 -101 6 4 8 0 4 -10 -3 -10 -2 -17 2 -17 5 0 7 -8 4 -18 -4
-16 24 -100 60 -182 6 -14 11 -27 12 -30 7 -32 18 -49 27 -44 6 4 8 2 5 -3 -9
-15 13 -74 24 -67 5 3 9 2 8 -3 -4 -20 2 -43 14 -55 7 -7 23 -33 36 -58 34
-67 50 -83 70 -67 14 10 14 10 3 -4 -13 -17 -7 -49 9 -49 5 0 8 -3 7 -7 -4
-16 23 -53 34 -47 6 4 8 3 5 -3 -6 -9 78 -133 106 -158 7 -5 29 -32 51 -58 24
-30 44 -46 53 -43 8 3 11 1 8 -4 -9 -14 136 -162 152 -156 7 3 12 0 10 -7 -1
-7 4 -11 11 -9 8 1 11 -2 8 -7 -4 -5 8 -20 26 -32 18 -13 38 -29 45 -35 37
-36 185 -125 198 -120 9 3 14 2 11 -3 -9 -13 22 -35 118 -85 74 -39 91 -44
105 -34 14 11 14 11 3 -4 -11 -14 -10 -17 10 -24 13 -4 25 -7 28 -6 3 0 10 -4
17 -10 7 -5 18 -6 24 -2 7 4 9 3 6 -3 -4 -6 5 -15 19 -22 20 -9 24 -9 18 1 -4
7 1 6 12 -4 10 -9 44 -23 74 -32 30 -8 87 -24 125 -36 76 -22 127 -33 163 -34
12 -1 22 -4 22 -8 0 -5 9 -8 20 -8 11 0 20 5 20 11 0 5 5 7 10 4 6 -4 8 -10 6
-14 -17 -27 421 -50 605 -32 153 15 239 32 213 42 -16 6 -16 8 -2 8 9 1 19 -3
22 -8 4 -5 23 -5 46 1 30 8 40 15 35 26 -5 12 -3 13 10 2 13 -11 26 -11 70 -1
30 7 55 17 55 22 0 6 5 7 11 3 6 -3 15 0 20 7 6 10 9 10 9 2 0 -9 7 -10 23 -4
12 5 41 15 65 22 24 7 47 20 52 28 6 10 10 11 10 4 0 -10 6 -10 25 -1 13 6 22
15 19 19 -3 5 2 6 10 3 9 -3 16 -2 16 4 0 5 8 9 17 8 10 0 18 4 18 11 0 6 4
15 9 20 5 5 6 3 2 -4 -8 -14 3 -17 28 -7 9 3 13 10 10 15 -3 5 3 6 12 2 13 -5
15 -3 9 7 -5 9 -4 11 4 6 16 -11 221 106 243 138 4 6 8 8 8 3 0 -11 80 44 80
55 0 5 4 7 9 3 5 -3 13 0 17 6 5 8 3 9 -6 4 -9 -5 -11 -4 -6 4 4 6 12 8 18 5
6 -4 13 -2 17 2 3 5 25 24 49 43 24 19 39 38 35 44 -3 7 -3 9 2 5 11 -10 47
11 40 23 -4 5 -2 8 3 7 14 -4 115 99 108 111 -4 5 -1 13 5 17 8 4 9 3 5 -4 -4
-7 -4 -12 1 -12 10 0 143 143 143 155 0 6 12 21 25 34 35 32 73 87 54 77 -7
-4 -3 2 11 14 14 12 18 19 10 15 -8 -4 -6 2 6 12 20 18 114 156 114 168 0 4 9
18 20 32 11 14 17 29 14 34 -3 5 0 9 6 9 6 0 8 5 5 10 -3 6 -2 10 3 10 12 0
30 41 26 63 -1 9 1 15 6 12 4 -3 11 5 15 18 4 12 8 24 9 27 1 3 7 15 14 28 7
12 10 22 7 22 -3 0 4 18 15 40 11 22 18 40 14 40 -4 0 0 8 7 17 8 9 9 14 4 11
-7 -4 -11 3 -11 17 0 13 4 21 8 19 5 -3 5 -11 2 -17 -5 -8 -4 -9 4 -2 6 6 13
19 15 30 1 11 5 25 8 30 4 6 14 42 23 80 9 39 22 85 27 103 6 18 12 50 14 70
2 20 5 44 9 52 10 28 25 164 31 295 7 133 -7 330 -31 455 -4 19 -6 39 -5 44 1
4 -6 20 -15 33 -9 14 -11 22 -5 19 6 -4 11 -3 11 3 0 5 -5 13 -11 16 -5 4 -8
12 -6 18 2 7 -2 32 -10 57 -8 25 -16 56 -19 70 -2 14 -7 32 -11 40 -3 8 -7 17
-8 20 -1 3 -6 20 -10 37 -4 19 -12 30 -18 26 -5 -3 -7 -1 -3 5 3 6 1 23 -6 39
-6 15 -12 30 -12 33 -6 34 -31 88 -39 83 -6 -3 -7 -1 -4 5 8 11 -29 103 -44
113 -6 3 -10 9 -10 13 3 17 0 26 -12 38 -6 7 -21 30 -32 51 -11 20 -23 37 -27
37 -5 0 -8 7 -8 15 0 8 -5 15 -10 15 -6 0 -9 3 -9 8 3 20 -3 23 -18 11 -16
-13 -17 -12 -5 3 11 14 8 24 -24 72 -20 31 -41 56 -47 56 -6 0 -7 3 -4 7 10 9
-14 34 -26 26 -5 -3 -7 -2 -4 4 9 14 -23 55 -38 49 -18 -7 -27 5 -14 20 8 9 2
18 -20 35 -17 12 -33 31 -37 41 -3 10 -10 16 -15 13 -5 -4 -9 0 -9 8 0 13 -67
82 -101 103 -8 5 -19 18 -26 29 -6 11 -16 19 -23 17 -6 -1 -9 2 -6 7 3 5 -7
17 -22 27 -15 9 -33 25 -40 33 -8 9 -11 11 -8 5 3 -6 -1 -11 -8 -11 -7 0 -13
7 -12 16 1 8 -9 20 -22 27 -13 6 -36 24 -52 39 -18 17 -33 24 -42 19 -7 -4
-10 -4 -6 1 11 12 -11 35 -34 35 -10 0 -17 4 -14 9 3 4 -17 20 -44 35 -27 15
-52 31 -55 37 -4 5 -11 7 -16 4 -5 -4 -9 -2 -9 3 0 13 -70 43 -83 36 -7 -4 -9
-4 -5 1 13 14 -25 35 -40 23 -9 -8 -11 -7 -7 3 4 10 -12 22 -47 39 -29 14 -57
25 -63 25 -5 0 -13 4 -16 8 -3 5 -12 10 -20 11 -8 2 -32 11 -53 20 -21 10 -47
15 -58 13 -10 -3 -18 -1 -18 3 0 10 -56 30 -63 23 -3 -2 -15 1 -28 7 -18 10
-21 10 -16 -2 3 -8 -1 -15 -8 -15 -7 0 -11 6 -8 13 2 7 -5 17 -16 24 -12 6
-21 9 -21 6 0 -3 -14 0 -31 6 -25 8 -33 8 -40 -3 -7 -12 -9 -11 -9 2 0 12 -23
20 -92 32 -139 26 -208 32 -208 17 0 -7 -6 -6 -16 4 -13 13 -43 16 -187 14
-95 0 -199 -4 -232 -9z m1079 -158 c9 -14 -26 -23 -38 -11 -8 8 -6 9 8 4 13
-5 17 -4 12 4 -4 7 -3 12 3 12 5 0 12 -4 15 -9z m143 -90 c0 -10 -7 -18 -14
-18 -9 0 -10 4 -2 13 6 7 7 19 3 25 -4 7 -3 9 4 5 6 -3 10 -15 9 -25z m187
-79 c2 -4 -4 -8 -14 -8 -10 0 -16 4 -14 8 3 4 9 8 14 8 5 0 11 -4 14 -8z
m-2464 -71 c0 -5 -7 -12 -16 -15 -14 -5 -15 -4 -4 9 14 17 20 19 20 6z m-87
-91 c3 -11 1 -18 -4 -14 -5 3 -9 12 -9 20 0 20 7 17 13 -6z m-236 -202 c-3 -8
-6 -5 -6 6 -1 11 2 17 5 13 3 -3 4 -12 1 -19z m3328 -126 c-3 -3 -11 0 -18 7
-9 10 -8 11 6 5 10 -3 15 -9 12 -12z m-3481 -78 c3 -8 2 -12 -4 -9 -6 3 -10
10 -10 16 0 14 7 11 14 -7z m-86 -63 c-7 -11 -16 -17 -21 -14 -4 3 0 11 10 19
24 18 25 17 11 -5z m-88 -155 c0 -2 -8 -10 -17 -17 -16 -13 -17 -12 -4 4 13
16 21 21 21 13z m3908 -19 c17 6 15 -4 -2 -10 -8 -3 -22 4 -33 16 -18 22 -18
22 2 6 11 -9 26 -14 33 -12z m-3897 -10 c-10 -9 -11 -8 -5 6 3 10 9 15 12 12
3 -3 0 -11 -7 -18z m470 -24 c13 -16 12 -17 -3 -4 -10 7 -18 15 -18 17 0 8 8
3 21 -13z m46 -6 c-3 -9 6 -13 34 -12 21 1 36 -1 34 -4 -9 -8 35 -32 47 -25 7
4 8 3 4 -4 -4 -6 0 -23 9 -36 12 -18 17 -49 17 -120 0 -53 4 -96 9 -96 5 0 9
5 9 11 0 5 5 7 10 4 6 -4 16 -2 23 3 14 11 134 42 163 42 12 0 24 3 27 7 4 3
26 8 49 10 82 6 443 5 488 -2 25 -4 57 -8 71 -10 14 -1 30 -4 35 -7 5 -3 21
-5 36 -4 14 1 25 -1 22 -5 -2 -4 8 -10 21 -13 43 -11 179 -78 188 -92 4 -7 20
-22 35 -33 l28 -20 31 29 c17 16 34 26 38 22 5 -4 6 0 3 9 -4 10 0 15 11 15
19 -1 28 17 10 23 -7 2 -9 -1 -4 -9 5 -9 4 -11 -4 -6 -16 10 -4 25 19 23 10
-1 16 -5 13 -11 -7 -10 30 -2 74 16 15 6 31 12 35 12 3 1 9 4 13 8 4 4 13 4
20 2 16 -7 29 27 14 37 -7 4 -18 5 -25 2 -6 -2 -15 0 -18 5 -11 19 48 3 63
-17 15 -19 21 -20 76 -10 139 23 449 17 605 -13 36 -6 70 -13 75 -14 6 0 20
-5 32 -9 12 -4 25 -6 29 -5 4 1 10 -2 13 -7 8 -12 100 -56 117 -56 7 0 11 -3
9 -7 -3 -4 4 -15 15 -25 17 -15 22 -16 37 -4 16 12 17 12 5 -2 -10 -13 -8 -21
9 -43 11 -14 28 -26 37 -26 15 0 15 -2 2 -10 -13 -9 -13 -10 0 -11 8 -1 19 -1
24 0 5 1 5 -4 -1 -11 -12 -15 18 -73 32 -60 4 4 5 2 2 -4 -5 -9 12 -72 40
-144 3 -8 7 -26 8 -40 8 -81 19 -137 29 -149 6 -8 7 -12 1 -9 -7 4 -10 -64
-10 -195 0 -132 -5 -220 -13 -253 -8 -29 -14 -58 -16 -65 -1 -8 -12 -36 -24
-63 -12 -27 -22 -52 -22 -57 0 -5 -6 -9 -12 -9 -9 0 -8 -4 2 -10 13 -9 13 -10
0 -10 -16 0 -55 -59 -45 -68 3 -3 5 1 5 9 0 12 2 11 10 -1 8 -13 11 -12 25 5
12 16 14 17 9 3 -6 -16 2 -18 84 -18 108 0 144 -6 170 -31 11 -10 24 -15 28
-11 5 4 6 4 3 -1 -3 -4 2 -30 12 -59 15 -46 16 -54 2 -75 -8 -13 -12 -23 -8
-23 5 0 -5 -11 -21 -25 -35 -30 -90 -47 -161 -49 -29 -1 -55 -5 -59 -9 -4 -4
-12 -7 -18 -7 -6 0 -4 5 4 10 10 6 -167 10 -510 10 -423 0 -542 3 -611 15 -70
12 -196 15 -660 15 -655 1 -728 7 -858 67 -41 18 -81 31 -88 29 -8 -3 -11 -1
-8 4 4 6 -13 30 -37 53 -25 23 -60 63 -79 88 -19 26 -37 45 -40 43 -3 -2 -6 3
-6 11 0 8 4 12 8 9 5 -3 0 15 -11 38 -11 24 -20 51 -20 61 0 9 -4 17 -9 17 -5
0 -7 10 -3 22 4 16 2 19 -8 13 -9 -6 -11 -4 -5 5 4 7 2 16 -6 21 -12 7 -12 9
0 9 8 0 11 6 6 18 -11 27 -14 66 -19 252 -5 196 7 354 34 446 7 26 10 126 8
311 -2 149 0 269 5 266 4 -2 7 1 7 7 0 16 38 48 78 66 17 8 32 19 32 24 0 6 3
10 6 10 3 0 4 -6 1 -13z m-77 -22 c-7 -9 -15 -13 -19 -10 -3 3 1 10 9 15 21
14 24 12 10 -5z m3564 -103 c3 -5 -1 -9 -9 -9 -8 0 -12 4 -9 9 3 4 7 8 9 8 2
0 6 -4 9 -8z m-2320 -108 c3 -8 2 -12 -4 -9 -6 3 -10 10 -10 16 0 14 7 11 14
-7z m-929 -14 c-3 -5 -11 -10 -16 -10 -6 0 -7 5 -4 10 3 6 11 10 16 10 6 0 7
-4 4 -10z m2140 -18 c-3 -3 -11 0 -18 7 -9 10 -8 11 6 5 10 -3 15 -9 12 -12z
m1170 -12 c3 -5 1 -10 -4 -10 -6 0 -11 5 -11 10 0 6 2 10 4 10 3 0 8 -4 11
-10z m-2240 -29 c3 -5 2 -12 -3 -15 -5 -3 -9 1 -9 9 0 17 3 19 12 6z m1283
-32 c3 -11 1 -11 -6 -1 -5 7 -17 10 -28 6 -16 -5 -16 -4 -4 5 18 13 32 10 38
-10z m98 -95 c1 -9 0 -13 -4 -10 -3 4 -7 14 -8 22 -1 9 0 13 4 10 3 -4 7 -14
8 -22z m900 0 c1 -9 0 -13 -4 -10 -3 4 -7 14 -8 22 -1 9 0 13 4 10 3 -4 7 -14
8 -22z m-739 -994 c-1 -10 -5 -17 -9 -14 -4 3 -4 12 -1 21 5 12 3 14 -7 8 -9
-5 -11 -4 -6 4 10 16 25 4 23 -19z m-2858 -293 c8 -10 7 -14 -2 -14 -8 0 -14
6 -14 14 0 7 1 13 2 13 2 0 8 -6 14 -13z m-743 -132 c1 -8 -1 -17 -5 -19 -4
-3 -7 6 -7 19 0 25 8 25 12 0z m1098 -24 c3 -5 0 -11 -7 -14 -8 -3 -14 1 -14
9 0 16 13 19 21 5z m2501 -79 c-3 -3 -11 0 -18 7 -9 10 -8 11 6 5 10 -3 15 -9
12 -12z m-3449 -244 c3 -4 -1 -5 -10 -4 -8 1 -18 5 -22 8 -3 4 1 5 10 4 8 -1
18 -5 22 -8z m3909 -196 c-3 -3 -11 0 -18 7 -9 10 -8 11 6 5 10 -3 15 -9 12
-12z m-3585 -252 c0 -15 -18 -21 -27 -8 -16 26 -12 38 8 28 10 -6 19 -15 19
-20z m3405 10 c-3 -5 -12 -10 -18 -10 -7 0 -6 4 3 10 19 12 23 12 15 0z
m-3291 -152 c-5 -8 -2 -9 9 -5 9 3 16 3 15 -1 -1 -4 4 -18 11 -32 13 -22 11
-21 -16 5 -27 26 -34 45 -17 45 3 0 2 -5 -2 -12z m133 -91 c0 -8 -6 -14 -14
-14 -9 0 -10 4 -2 14 6 7 12 13 14 13 1 0 2 -6 2 -13z m60 -74 c0 -9 -4 -10
-14 -2 -7 6 -13 12 -13 14 0 1 6 2 13 2 8 0 14 -6 14 -14z m163 -103 c0 -5 -5
-10 -11 -10 -5 0 -7 5 -4 10 3 6 8 10 11 10 2 0 4 -4 4 -10z m2365 -50 c3 -5
1 -10 -4 -10 -6 0 -11 5 -11 10 0 6 2 10 4 10 3 0 8 -4 11 -10z m-40 -10 c-3
-5 -14 -10 -23 -9 -14 0 -13 2 3 9 27 11 27 11 20 0z m-190 -69 c-9 -8 -36
-10 -30 -2 2 4 11 8 20 8 8 0 13 -3 10 -6z"/>
<path d="M1599 3176 c-1 -4 -2 -10 -3 -15 0 -5 -5 -13 -10 -18 -5 -4 -6 -3 -2
4 3 6 2 14 -4 18 -5 3 -10 1 -10 -6 0 -9 -4 -8 -15 1 -11 9 -21 9 -46 -4 -18
-9 -39 -16 -48 -16 -33 0 -146 -85 -135 -101 3 -5 1 -9 -5 -9 -13 0 -38 -47
-42 -80 -2 -14 -8 -28 -13 -32 -5 -3 -10 -22 -10 -42 -1 -20 -4 -36 -8 -36 -3
0 -5 -8 -4 -17 2 -10 -1 -31 -5 -47 -6 -20 -5 -34 4 -45 9 -12 9 -13 0 -7 -10
6 -13 -23 -13 -128 0 -102 3 -136 13 -136 9 0 8 -3 -2 -9 -7 -5 -9 -11 -4 -14
5 -3 8 -20 7 -37 -1 -17 3 -48 9 -68 6 -20 11 -39 12 -42 1 -3 5 -20 9 -37 8
-35 15 -40 33 -22 8 8 13 7 18 -2 5 -7 4 -10 -2 -6 -6 4 -16 0 -23 -8 -10 -12
-9 -16 4 -21 9 -3 14 -10 11 -14 -2 -4 11 -21 30 -38 19 -18 37 -27 40 -22 3
6 14 10 23 9 14 0 13 -2 -3 -8 -18 -7 -18 -8 5 -23 28 -18 78 -35 130 -44 58
-11 349 -14 355 -4 3 5 20 7 37 3 21 -4 29 -3 24 5 -4 7 1 9 15 7 13 -3 28 0
36 6 7 7 13 8 13 5 0 -4 27 7 61 25 65 35 113 83 105 106 -4 9 -2 11 6 7 8 -5
9 -2 5 10 -4 9 -3 14 2 11 10 -5 15 6 26 63 4 17 3 32 -2 32 -4 0 -8 35 -9 78
0 42 -2 97 -3 122 -5 75 12 295 26 344 3 10 1 16 -4 13 -5 -3 -9 4 -8 16 1 12
-5 28 -14 35 -9 8 -10 11 -3 7 8 -4 7 6 -5 32 -21 47 -43 74 -54 67 -5 -3 -6
2 -3 10 6 15 -49 57 -110 83 -35 16 -39 16 -30 1 4 -7 4 -10 0 -6 -4 3 -22 2
-39 -3 -29 -8 -30 -7 -13 6 10 8 23 12 27 9 5 -3 9 0 9 7 0 6 -8 9 -20 6 -10
-3 -21 0 -23 6 -4 12 -346 24 -348 13z m336 -28 c5 4 5 1 1 -6 -6 -10 -11 -10
-22 -1 -8 6 -14 14 -14 16 0 3 6 0 13 -6 8 -6 18 -7 22 -3z m193 -95 c-13 -16
-22 -17 -12 -1 5 8 2 9 -10 5 -9 -4 -15 -3 -11 2 3 6 14 9 25 8 14 -1 16 -4 8
-14z m72 -133 c0 -5 -2 -10 -4 -10 -3 0 -8 5 -11 10 -3 6 -1 10 4 10 6 0 11
-4 11 -10z m-933 -592 c-3 -8 -6 -5 -6 6 -1 11 2 17 5 13 3 -3 4 -12 1 -19z
m911 -33 c-3 -3 -9 2 -12 12 -6 14 -5 15 5 6 7 -7 10 -15 7 -18z m-823 -115
c-3 -5 -12 -10 -18 -10 -7 0 -6 4 3 10 19 12 23 12 15 0z"/>
<path d="M2895 3143 c-65 -14 -155 -45 -155 -53 0 -6 -4 -9 -9 -7 -29 7 -110
-79 -93 -98 4 -5 2 -5 -4 -2 -12 7 -37 -39 -29 -53 3 -5 0 -10 -7 -12 -14 -5
-14 -33 -4 -238 4 -74 3 -174 -1 -222 -6 -60 -5 -88 2 -88 5 0 4 -4 -4 -9 -7
-5 -11 -13 -7 -19 3 -6 1 -12 -6 -14 -9 -3 -9 -14 2 -49 7 -24 13 -47 12 -51
-1 -5 3 -8 9 -8 5 0 7 -4 4 -10 -3 -5 -2 -10 3 -10 6 0 13 -7 16 -16 4 -10 2
-13 -6 -8 -7 5 -8 2 -3 -7 16 -28 48 -58 57 -53 5 3 7 0 6 -8 -2 -7 22 -25 55
-41 56 -27 59 -28 72 -10 13 17 14 17 9 -3 -3 -13 0 -21 8 -22 7 -1 31 -5 53
-9 45 -9 381 0 435 11 19 4 39 12 44 17 6 5 17 9 26 9 20 0 90 47 90 61 0 6
-5 7 -12 3 -7 -4 -8 -3 -4 4 4 7 14 12 21 12 8 0 23 17 33 38 26 51 56 167 49
186 -4 9 -2 16 3 16 4 0 10 33 12 74 2 41 0 72 -4 70 -3 -2 -4 13 -2 34 13
104 -11 326 -38 360 -6 6 -8 12 -4 12 17 0 -37 81 -84 126 l-24 23 -26 -22
c-22 -19 -23 -20 -7 -1 9 11 17 23 17 26 0 11 -103 49 -121 45 -11 -3 -17 -2
-14 3 2 4 -16 10 -42 14 -50 7 -296 6 -328 -1z m-135 -77 c0 -7 -40 -14 -44
-7 -3 4 6 8 20 9 13 1 24 0 24 -2z m-129 -169 c-8 -8 -14 -7 -23 2 -11 10 -9
11 6 5 15 -6 17 -4 11 6 -6 9 -4 11 4 5 9 -5 10 -10 2 -18z"/>
<path d="M765 1010 c3 -5 8 -10 11 -10 2 0 4 5 4 10 0 6 -5 10 -11 10 -5 0 -7
-4 -4 -10z"/>
</g>
</svg>
