<svg xmlns="http://www.w3.org/2000/svg" width="194" height="28" viewBox="0 0 194 28" fill="none"><path d="M32.7179 4.33719C32.7179 5.44339 32.0472 6.43401 31.0166 6.83026L16.3589 12.5098L4.3433 17.1658C1.8322 18.1399 1.82402 21.7227 4.32694 22.705L4.19607 22.6555C1.66861 21.6731 0 19.2213 0 16.4889V4.74995C0 3.10716 1.31689 1.77808 2.94461 1.77808H30.1822C31.5809 1.77808 32.7179 2.92555 32.7179 4.33719Z" fill="url(#paint0_linear_51_187)"></path><path d="M32.7181 13.4591V22.2096C32.7181 22.7545 32.2764 23.2003 31.7366 23.2003H17.3407C16.8009 23.2003 16.3592 23.646 16.3592 24.1909V25.9245C16.3592 26.1639 16.2774 26.3785 16.1465 26.5436C15.8929 26.8656 15.4512 27.0142 15.0259 26.8491L14.2325 26.5436L4.34352 22.7132C4.34352 22.7132 4.33535 22.7132 4.32717 22.7132C1.82425 21.7308 1.83243 18.1481 4.34352 17.174L16.3592 12.518L16.4573 12.4767H31.7366C32.2764 12.4767 32.7181 12.9225 32.7181 13.4674V13.4591Z" fill="url(#paint1_linear_51_187)"></path><path d="M176.29 17.3804C176.29 15.8624 176.528 14.4836 177.004 13.244C177.506 12.0043 178.17 10.9544 178.997 10.0943C179.85 9.20881 180.852 8.52573 182.005 8.04506C183.183 7.56438 184.449 7.32404 185.803 7.32404C187.106 7.32404 188.272 7.55173 189.3 8.00711C190.327 8.46249 191.18 9.09496 191.857 9.90453C192.558 10.7141 193.085 11.6755 193.436 12.7886C193.812 13.9018 194 15.1288 194 16.4696C194 16.8238 193.874 17.1274 193.624 17.3804C193.398 17.6334 193.097 17.7598 192.721 17.7598H180.012C180.063 18.7971 180.276 19.7205 180.652 20.5301C181.028 21.3397 181.516 22.0227 182.118 22.5793C182.72 23.1359 183.396 23.5533 184.148 23.8316C184.926 24.1099 185.74 24.249 186.593 24.249C187.645 24.249 188.56 24.0846 189.337 23.7557C190.114 23.4015 190.716 23.06 191.142 22.7311C191.894 22.3263 192.458 22.4655 192.834 23.1485L193.173 23.7178C193.373 24.0466 193.436 24.3629 193.361 24.6665C193.31 24.9448 193.122 25.1851 192.797 25.3875C192.521 25.5899 192.17 25.8176 191.744 26.0706C191.318 26.2982 190.829 26.5133 190.277 26.7157C189.751 26.9181 189.149 27.0825 188.473 27.209C187.821 27.3608 187.119 27.4367 186.367 27.4367C184.863 27.4367 183.497 27.1837 182.268 26.6777C181.04 26.1465 179.975 25.4381 179.072 24.5526C178.195 23.6419 177.506 22.5793 177.004 21.3649C176.528 20.1253 176.29 18.7971 176.29 17.3804ZM190.353 15.3312C190.302 13.6361 189.826 12.3585 188.924 11.4984C188.046 10.6382 186.981 10.2081 185.728 10.2081C184.324 10.2081 183.108 10.6635 182.08 11.5743C181.078 12.4597 180.439 13.712 180.163 15.3312H190.353Z" fill="#132538"></path><path d="M157.182 25.6151C157.182 25.2862 157.219 25.0332 157.294 24.8561C157.37 24.6537 157.508 24.426 157.708 24.173L166.77 12.7126C166.97 12.4596 167.158 12.2193 167.334 11.9916C167.534 11.7639 167.71 11.5741 167.86 11.4223L168.349 10.929V10.8531C168.224 10.8784 168.073 10.8911 167.898 10.8911C167.747 10.9164 167.547 10.929 167.296 10.929C167.071 10.929 166.807 10.929 166.507 10.929H158.836C158.009 10.929 157.595 10.5116 157.595 9.67672V9.03159C157.595 8.19673 158.009 7.7793 158.836 7.7793H172.034C172.861 7.7793 173.275 8.13348 173.275 8.84185V9.14544C173.275 9.47433 173.237 9.73997 173.162 9.94236C173.087 10.1194 172.949 10.3345 172.748 10.5875L163.686 22.0858C163.486 22.3388 163.285 22.5792 163.085 22.8069C162.909 23.0093 162.746 23.1864 162.596 23.3381C162.421 23.5152 162.245 23.6797 162.07 23.8315V23.9074C162.195 23.9074 162.345 23.8947 162.521 23.8694C162.671 23.8694 162.859 23.8694 163.085 23.8694C163.31 23.8441 163.586 23.8315 163.912 23.8315H172.335C173.162 23.8315 173.575 24.2363 173.575 25.0458V25.7289C173.575 26.5638 173.162 26.9812 172.335 26.9812H158.422C157.595 26.9812 157.182 26.627 157.182 25.9186V25.6151Z" fill="#132538"></path><path d="M150.552 3.94653C149.725 3.94653 149.312 3.5291 149.312 2.69423V1.44193C149.312 0.607069 149.725 0.189636 150.552 0.189636H151.831C152.658 0.189636 153.072 0.607069 153.072 1.44193V2.69423C153.072 3.5291 152.658 3.94653 151.831 3.94653H150.552ZM149.349 9.03162C149.349 8.19675 149.763 7.77932 150.59 7.77932H151.756C152.583 7.77932 152.996 8.19675 152.996 9.03162V25.7289C152.996 26.5638 152.583 26.9812 151.756 26.9812H150.59C149.763 26.9812 149.349 26.5638 149.349 25.7289V9.03162Z" fill="#132538"></path><path d="M139.132 1.44175C139.132 0.606886 139.545 0.189453 140.373 0.189453H141.538C142.365 0.189453 142.779 0.606886 142.779 1.44175V21.2888C142.779 21.82 142.829 22.2501 142.929 22.579C143.03 22.9079 143.168 23.1609 143.343 23.338C143.519 23.5151 143.707 23.6416 143.907 23.7175C144.108 23.7681 144.308 23.806 144.509 23.8313C144.784 23.8819 145.01 23.9958 145.185 24.1729C145.386 24.3246 145.486 24.5776 145.486 24.9318V25.8426C145.486 26.2474 145.386 26.5636 145.185 26.7913C145.01 27.019 144.684 27.1328 144.208 27.1328C143.707 27.1328 143.155 27.0822 142.553 26.981C141.952 26.8545 141.4 26.6142 140.899 26.26C140.398 25.8805 139.972 25.3366 139.621 24.6282C139.295 23.9199 139.132 22.9585 139.132 21.7442V1.44175Z" fill="#132538"></path><path d="M117.063 17.3805C117.063 15.8626 117.302 14.4838 117.778 13.2442C118.279 12.0045 118.943 10.9546 119.771 10.0945C120.623 9.20899 121.626 8.52592 122.779 8.04524C123.957 7.56456 125.223 7.32422 126.576 7.32422C127.88 7.32422 129.045 7.55191 130.073 8.00729C131.101 8.46267 131.953 9.09514 132.63 9.90471C133.332 10.7143 133.858 11.6756 134.209 12.7888C134.585 13.9019 134.773 15.1289 134.773 16.4698C134.773 16.824 134.648 17.1276 134.397 17.3805C134.172 17.6335 133.871 17.76 133.495 17.76H120.786C120.836 18.7973 121.049 19.7207 121.425 20.5303C121.801 21.3398 122.29 22.0229 122.892 22.5795C123.493 23.1361 124.17 23.5535 124.922 23.8318C125.699 24.1101 126.514 24.2492 127.366 24.2492C128.419 24.2492 129.334 24.0848 130.111 23.7559C130.888 23.4017 131.489 23.0602 131.916 22.7313C132.668 22.3265 133.232 22.4656 133.608 23.1487L133.946 23.7179C134.147 24.0468 134.209 24.3631 134.134 24.6666C134.084 24.9449 133.896 25.1853 133.57 25.3877C133.294 25.5901 132.943 25.8177 132.517 26.0707C132.091 26.2984 131.602 26.5135 131.051 26.7159C130.524 26.9183 129.923 27.0827 129.246 27.2092C128.594 27.361 127.892 27.4369 127.14 27.4369C125.636 27.4369 124.27 27.1839 123.042 26.6779C121.814 26.1466 120.748 25.4383 119.846 24.5528C118.969 23.642 118.279 22.5795 117.778 21.3651C117.302 20.1255 117.063 18.7973 117.063 17.3805ZM131.126 15.3313C131.076 13.6363 130.6 12.3587 129.697 11.4985C128.82 10.6384 127.754 10.2083 126.501 10.2083C125.097 10.2083 123.882 10.6637 122.854 11.5744C121.851 12.4599 121.212 13.7122 120.936 15.3313H131.126Z" fill="#132538"></path><path d="M94.4736 17.3803C94.4736 15.8623 94.6867 14.4835 95.1128 13.2439C95.539 12.0042 96.128 10.9543 96.8801 10.0942C97.6571 9.20871 98.5721 8.52564 99.6249 8.04496C100.678 7.56428 101.831 7.32394 103.084 7.32394C104.187 7.32394 105.102 7.50103 105.829 7.85522C106.581 8.1841 107.195 8.56359 107.671 8.99367C108.223 9.47435 108.661 10.0183 108.987 10.6254H109.063C109.037 10.499 109.012 10.3725 108.987 10.246C108.962 10.1195 108.95 9.99298 108.95 9.86648C108.95 9.71469 108.95 9.53759 108.95 9.3352V1.44193C108.95 0.607069 109.363 0.189636 110.191 0.189636H111.356C112.183 0.189636 112.597 0.607069 112.597 1.44193V25.7289C112.597 26.5638 112.183 26.9812 111.356 26.9812H110.379C109.551 26.9812 109.138 26.5891 109.138 25.8048V24.7043C109.138 24.3754 109.15 24.1477 109.175 24.0212C109.175 23.92 109.188 23.8315 109.213 23.7556H109.138C108.787 24.464 108.323 25.0838 107.747 25.6151C107.245 26.0705 106.593 26.4879 105.791 26.8674C105.014 27.2469 104.037 27.4366 102.858 27.4366C101.58 27.4366 100.414 27.1963 99.3617 26.7156C98.3339 26.2096 97.4566 25.5139 96.7296 24.6284C96.0027 23.7429 95.4387 22.693 95.0376 21.4787C94.6616 20.239 94.4736 18.8729 94.4736 17.3803ZM98.1961 17.3803C98.1961 18.4175 98.3214 19.3662 98.5721 20.2264C98.8478 21.0613 99.2238 21.7823 99.7001 22.3895C100.176 22.9713 100.74 23.4267 101.392 23.7556C102.044 24.0845 102.771 24.2489 103.573 24.2489C104.275 24.2489 104.952 24.1224 105.603 23.8694C106.28 23.5912 106.869 23.1737 107.371 22.6171C107.872 22.0606 108.273 21.3522 108.574 20.492C108.9 19.6066 109.063 18.5567 109.063 17.3423C109.063 16.4822 108.95 15.6473 108.724 14.8377C108.499 14.0282 108.16 13.3071 107.709 12.6747C107.258 12.0422 106.694 11.5362 106.017 11.1567C105.34 10.7519 104.551 10.5496 103.648 10.5496C102.896 10.5496 102.194 10.7013 101.542 11.0049C100.891 11.3085 100.314 11.7513 99.8129 12.3331C99.3115 12.915 98.9105 13.636 98.6097 14.4962C98.3339 15.3311 98.1961 16.2924 98.1961 17.3803Z" fill="#132538"></path><path d="M73.5713 17.3805C73.5713 15.8626 73.8094 14.4838 74.2857 13.2442C74.787 12.0045 75.4513 10.9546 76.2785 10.0945C77.1308 9.20899 78.1335 8.52592 79.2865 8.04524C80.4647 7.56456 81.7305 7.32422 83.0842 7.32422C84.3876 7.32422 85.5532 7.55191 86.581 8.00729C87.6087 8.46267 88.461 9.09514 89.1378 9.90471C89.8397 10.7143 90.3661 11.6756 90.717 12.7888C91.093 13.9019 91.281 15.1289 91.281 16.4698C91.281 16.824 91.1557 17.1276 90.905 17.3805C90.6794 17.6335 90.3786 17.76 90.0026 17.76H77.2937C77.3439 18.7973 77.5569 19.7207 77.9329 20.5303C78.3089 21.3398 78.7977 22.0229 79.3993 22.5795C80.0009 23.1361 80.6777 23.5535 81.4297 23.8318C82.2068 24.1101 83.0215 24.2492 83.8738 24.2492C84.9266 24.2492 85.8415 24.0848 86.6186 23.7559C87.3957 23.4017 87.9973 23.0602 88.4234 22.7313C89.1754 22.3265 89.7394 22.4656 90.1154 23.1487L90.4538 23.7179C90.6543 24.0468 90.717 24.3631 90.6418 24.6666C90.5917 24.9449 90.4037 25.1853 90.0778 25.3877C89.8021 25.5901 89.4511 25.8177 89.025 26.0707C88.5989 26.2984 88.1101 26.5135 87.5586 26.7159C87.0322 26.9183 86.4306 27.0827 85.7538 27.2092C85.102 27.361 84.4002 27.4369 83.6482 27.4369C82.1442 27.4369 80.778 27.1839 79.5497 26.6779C78.3215 26.1466 77.2561 25.4383 76.3537 24.5528C75.4764 23.642 74.787 22.5795 74.2857 21.3651C73.8094 20.1255 73.5713 18.7973 73.5713 17.3805ZM87.6338 15.3313C87.5837 13.6363 87.1074 12.3587 86.205 11.4985C85.3276 10.6384 84.2623 10.2083 83.009 10.2083C81.6052 10.2083 80.3895 10.6637 79.3617 11.5744C78.3591 12.4599 77.7199 13.7122 77.4441 15.3313H87.6338Z" fill="#132538"></path><path d="M52.7061 17.3805C52.7061 15.8626 52.9442 14.4838 53.4205 13.2442C53.9218 12.0045 54.5861 10.9546 55.4133 10.0945C56.2655 9.20899 57.2682 8.52592 58.4213 8.04524C59.5994 7.56456 60.8653 7.32422 62.2189 7.32422C63.5224 7.32422 64.688 7.55191 65.7157 8.00729C66.7435 8.46267 67.5958 9.09514 68.2726 9.90471C68.9744 10.7143 69.5008 11.6756 69.8518 12.7888C70.2278 13.9019 70.4158 15.1289 70.4158 16.4698C70.4158 16.824 70.2904 17.1276 70.0398 17.3805C69.8142 17.6335 69.5134 17.76 69.1374 17.76H56.4285C56.4786 18.7973 56.6917 19.7207 57.0677 20.5303C57.4437 21.3398 57.9325 22.0229 58.5341 22.5795C59.1357 23.1361 59.8125 23.5535 60.5645 23.8318C61.3416 24.1101 62.1563 24.2492 63.0085 24.2492C64.0613 24.2492 64.9763 24.0848 65.7533 23.7559C66.5304 23.4017 67.132 23.0602 67.5582 22.7313C68.3102 22.3265 68.8742 22.4656 69.2502 23.1487L69.5886 23.7179C69.7891 24.0468 69.8518 24.3631 69.7766 24.6666C69.7264 24.9449 69.5384 25.1853 69.2126 25.3877C68.9368 25.5901 68.5859 25.8177 68.1598 26.0707C67.7336 26.2984 67.2448 26.5135 66.6934 26.7159C66.167 26.9183 65.5653 27.0827 64.8885 27.2092C64.2368 27.361 63.5349 27.4369 62.7829 27.4369C61.2789 27.4369 59.9128 27.1839 58.6845 26.6779C57.4562 26.1466 56.3909 25.4383 55.4885 24.5528C54.6111 23.642 53.9218 22.5795 53.4205 21.3651C52.9442 20.1255 52.7061 18.7973 52.7061 17.3805ZM66.7686 15.3313C66.7184 13.6363 66.2421 12.3587 65.3397 11.4985C64.4624 10.6384 63.3971 10.2083 62.1437 10.2083C60.74 10.2083 59.5242 10.6637 58.4965 11.5744C57.4938 12.4599 56.8546 13.7122 56.5789 15.3313H66.7686Z" fill="#132538"></path><path d="M42.61 10.9671H41.4068C40.5796 10.9671 40.166 10.5497 40.166 9.71479V9.22146C40.166 8.3866 40.5796 7.96917 41.4068 7.96917H42.61V7.0584C42.61 5.54047 42.8732 4.32612 43.3996 3.41536C43.9511 2.4793 44.5903 1.75828 45.3173 1.2523C46.0442 0.746319 46.7962 0.417432 47.5733 0.265638C48.3503 0.0885459 48.9895 0 49.4909 0H49.9421C50.7693 0 51.1829 0.417432 51.1829 1.2523V1.97332C51.1829 2.4034 51.0701 2.70699 50.8445 2.88408C50.6189 3.06117 50.293 3.17502 49.8669 3.22561C49.5159 3.25091 49.1274 3.30151 48.7013 3.37741C48.3002 3.45331 47.9117 3.6304 47.5357 3.90869C47.1847 4.18698 46.8839 4.59176 46.6333 5.12304C46.3826 5.62901 46.2573 6.32474 46.2573 7.2102V7.96917H49.5285C50.3557 7.96917 50.7693 8.3866 50.7693 9.22146V9.71479C50.7693 10.5497 50.3557 10.9671 49.5285 10.9671H46.2573V25.729C46.2573 26.5639 45.8437 26.9813 45.0164 26.9813H43.8508C43.0236 26.9813 42.61 26.5639 42.61 25.729V10.9671Z" fill="#132538"></path><defs><linearGradient id="paint0_linear_51_187" x1="-7.40468e-08" y1="8.90125" x2="32.7784" y2="2.96022" gradientUnits="userSpaceOnUse"><stop stop-color="#01A081"></stop><stop offset="1" stop-color="#89F178"></stop></linearGradient><linearGradient id="paint1_linear_51_187" x1="6.65855" y1="16.4276" x2="25.059" y2="33.4616" gradientUnits="userSpaceOnUse"><stop stop-color="#00886D"></stop><stop offset="1" stop-color="#89F178"></stop></linearGradient></defs></svg>